PathFileType	4	(X/Y/Z)	/home/utkubuntu/opensim/opensim_mycode/release_code/bioimitation/imitation_envs/data/02905/02905_PRE/experimental_data/task.trc
DataRate	CameraRate	NumFrames	NumMarkers	Units	OrigDataRate	OrigDataStartFrame	OrigNumFrames
100.000000	100.000000	4	43	mm	100.000000	298	478
Frame#	Time	C7			CLAV			LANK			LASI			LBHD			LELB			LFHD			LFIN			LHEE			LKNE			LMED			LMET			LMIF			LPSI			LSHO			LTHI			LTIB			LTOE			LTTU			LWRA			LWRB			RANK			RASI			RBAK			RBHD			RELB			RFHD			RFIN			RHEE			RKNE			RMED			RMET			RMIF			RPSI			RSHO			RTHI			RTIB			RTOE			RTTU			RWRA			RWRB			STRN			T10			
		X1	Y1	Z1	X2	Y2	Z2	X3	Y3	Z3	X4	Y4	Z4	X5	Y5	Z5	X6	Y6	Z6	X7	Y7	Z7	X8	Y8	Z8	X9	Y9	Z9	X10	Y10	Z10	X11	Y11	Z11	X12	Y12	Z12	X13	Y13	Z13	X14	Y14	Z14	X15	Y15	Z15	X16	Y16	Z16	X17	Y17	Z17	X18	Y18	Z18	X19	Y19	Z19	X20	Y20	Z20	X21	Y21	Z21	X22	Y22	Z22	X23	Y23	Z23	X24	Y24	Z24	X25	Y25	Z25	X26	Y26	Z26	X27	Y27	Z27	X28	Y28	Z28	X29	Y29	Z29	X30	Y30	Z30	X31	Y31	Z31	X32	Y32	Z32	X33	Y33	Z33	X34	Y34	Z34	X35	Y35	Z35	X36	Y36	Z36	X37	Y37	Z37	X38	Y38	Z38	X39	Y39	Z39	X40	Y40	Z40	X41	Y41	Z41	X42	Y42	Z42	X43	Y43	Z43	

299	2.98	1172.666015625	1236.802978515625	266.7980041503902	1285.678955078125	1168	255.5509948730464	1314.6669921875	65.93199920654301	222.6699981689451	1287.06103515625	832.4959716796875	164.1609954833981	1175.807983398438	1368.823974609375	206.2599945068355	1099.410034179688	961.0399780273438	83.07700347900357	1316.4189453125	1395.985961914062	196.4129943847651	1003.297973632812	709.0560302734375	76.13800048828097	1279.7509765625	36.26100158691413	277.1719970703123	1330.182006835938	443.0150146484376	164.190002441406	1344.862060546875	78.89299774169929	289.0799865722655	1389.108032226562	29.70599937438969	187.1529998779295	1385.364013671875	78.79599761962896	237.8659973144529	1138.10498046875	848.5260009765625	207.2299957275387	1191.6669921875	1207.1689453125	125.8619995117183	1331.535034179688	501.4289855957031	114.6979980468747	1313.618041992188	234.5599975585938	146.3730010986326	1426.0439453125	46.76699829101567	211.7949981689451	1384.676025390625	361.9930114746094	226.6450042724607	1061.4169921875	751.5750122070312	92.67400360107392	999.3670043945312	773.9359741210938	90.29399871826142	880.3909912109375	168.9170074462891	364.6390075683592	1257.848999023438	822.2449951171876	384.0289916992184	1134.1240234375	1125.201049804688	360.764007568359	1174.069946289062	1338.572021484375	343.2839965820308	1206.443969726562	962.3029785156251	495.7380065917965	1328.220947265625	1382.052978515625	332.9230041503902	1346.163940429688	751.7700195312501	516.1019897460935	841.593017578125	180.8289947509766	305.4309997558592	1152.56396484375	427.0050048828126	404.9320068359373	911.5889892578125	144.3139953613282	300.7359924316405	888.2849731445312	66.63200378417977	382.1950073242186	932.6610107421875	119.9110031127931	352.9140014648436	1128.781982421875	851.9660034179689	302.013000488281	1216.47705078125	1224.536987304688	382.5599975585933	1172.743041992188	511.8689880371095	450.7330017089841	1014.148010253906	316.8580017089845	440.1019897460936	921.4119873046875	58.1220016479493	359.9779968261718	1152.735961914062	324.4070129394532	368.4580078124998	1333.7509765625	789.1770019531251	476.1329956054684	1288.928955078125	762.4829711914064	519.7459716796873	1316.911010742188	1045.569946289062	261.7650146484371	1136.969970703125	962.3159790039064	264.5790100097653	
300	2.99	1183.722045898438	1237.916015625	265.526000976562	1296.843994140625	1169.239990234375	254.6080017089839	1314.899047851562	65.94599914550786	222.8379974365232	1298.18994140625	833.4229736328125	163.0379943847653	1186.758056640625	1369.791015625	205.2059936523433	1113.911010742188	961.3759765625	80.64800262451136	1327.370971679688	1396.921997070312	195.317993164062	1021.648986816406	707.8729858398438	73.00599670410128	1279.93505859375	36.52999877929694	277.2499999999998	1333.958984375	441.9169921875001	163.3179931640622	1345.366943359375	78.66600036621101	289.1640014648436	1389.0830078125	29.63899993896489	186.9579925537108	1385.723999023438	78.54799652099615	237.9109954833982	1149.243041992188	849.9089965820312	205.86799621582	1203.22900390625	1208.661010742188	124.7750015258785	1333.862060546875	499.8420104980469	113.2389984130857	1313.864013671875	234.1799926757813	146.5379943847654	1426.281005859375	46.5499992370606	211.574005126953	1388.98095703125	360.5520019531251	225.0959930419919	1078.900024414062	751.4019775390625	90.60199737548798	1016.880004882812	773.02001953125	86.14900207519501	895.9550170898438	175.2129974365235	365.4200134277342	1268.949951171875	822.8229980468751	382.7099914550778	1144.9189453125	1126.401000976562	359.295989990234	1184.996948242188	1339.640991210938	342.2470092773433	1215.079956054688	963.4559936523439	493.6369934082027	1339.170043945312	1383.088012695312	331.8550109863277	1352.525024414062	751.2080078125001	514.960998535156	857.593017578125	187.8170013427735	305.9240112304686	1172.300048828125	425.8670043945314	404.867004394531	926.31298828125	148.9360046386719	301.5979919433592	900.4710083007812	73.85399627685555	384.9119873046874	946.926025390625	124.6100006103516	354.3420104980468	1139.865966796875	852.5989990234376	300.9750061035153	1227.307006835938	1225.776977539062	381.4070129394527	1190.079956054688	510.8670043945314	450.1119995117185	1034.39697265625	317.2609863281251	441.2529907226561	932.8480224609375	63.28599929809578	362.845001220703	1172.072998046875	323.7279968261719	367.7139892578123	1341.045043945312	788.9299926757814	474.9809875488278	1295.344970703125	762.5880126953126	517.9730224609373	1328.136962890625	1046.800048828125	260.8670043945309	1148.141967773438	963.2369995117189	263.2579956054684	
301	3	1194.718017578125	1239.14794921875	264.2709960937495	1307.923950195312	1170.430053710938	253.8309936523433	1315.046997070312	66.01799774169926	223.0140075683592	1309.031005859375	834.0130004882812	162.1349945068356	1197.662963867188	1370.962036132812	204.2400054931636	1128.630981445312	961.573974609375	78.10399627685511	1338.307983398438	1397.901000976562	194.3789978027339	1040.968017578125	706.4140014648438	69.56400299072237	1280.02099609375	36.75299835205085	277.3519897460936	1336.843994140625	440.8469848632813	162.7830047607419	1345.725952148438	78.48699951171882	289.3190002441405	1389.047973632812	29.60400009155278	186.8699951171873	1385.982055664062	78.34600067138678	238.0379943847654	1160.140991210938	851.2219848632812	204.1849975585934	1214.884033203125	1210.097045898438	123.6740036010738	1335.046997070312	498.2579956054688	112.1979980468747	1313.651977539062	234.113998413086	146.8529968261716	1426.43603515625	46.37400054931646	211.4969940185545	1392.517944335938	359.3880004882813	224.1289978027341	1097.01904296875	751.0239868164062	88.34500122070283	1035.089965820312	771.7449951171875	81.76000213623017	912.2260131835938	181.259002685547	365.4410095214842	1279.692993164062	823.4940185546876	381.6470031738278	1155.385986328125	1127.597045898438	357.5289916992184	1195.77294921875	1340.883056640625	341.2749938964839	1223.4990234375	964.4180297851564	491.6990051269527	1350.02294921875	1384.121948242188	330.9519958496089	1358.619995117188	750.5260009765626	513.7979736328123	874.5609741210938	193.2460021972657	305.459991455078	1192.469970703125	425.0270080566407	404.3909912109372	942.406005859375	152.9089965820313	302.209014892578	914.6849975585938	81.29799652099618	388.3120117187499	962.5789794921875	129.5079956054688	355.8749999999998	1150.672973632812	853.2139892578126	299.5620117187497	1237.989013671875	1226.952026367188	380.3999938964839	1207.7900390625	510.0530090332032	449.2290039062497	1055.344970703125	317.071990966797	441.980987548828	946.593994140625	68.90399932861337	366.7590026855468	1191.928955078125	323.2900085449219	366.2080078124998	1348.083984375	788.6170043945314	473.8829956054684	1301.501953125	762.5900268554689	516.2050170898435	1339.128051757812	1047.990966796875	260.1109924316402	1159.112060546875	964.2819824218751	261.8469848632809	
302	3.01	1205.6259765625	1240.463012695312	263.0520019531245	1318.883056640625	1171.60205078125	253.212997436523	1315.149047851562	66.14600372314457	223.1510009765623	1319.517944335938	834.4500122070312	161.3170013427731	1208.541015625	1372.327026367188	203.3450012207027	1143.610961914062	961.6530151367188	75.46099853515589	1349.234008789062	1398.967041015625	193.5870056152339	1061.2080078125	704.7769775390625	65.84600067138643	1280.031982421875	36.94800186157233	277.4500122070311	1339.43603515625	440.0880126953126	162.4360046386716	1345.970947265625	78.37699890136726	289.480010986328	1389.011962890625	29.58399963378911	186.8399963378905	1386.171020507812	78.19300079345709	238.1759948730467	1170.734008789062	852.5120239257812	202.3760070800778	1226.5849609375	1211.491943359375	122.5630035400386	1336.20703125	497.0809936523438	111.4800033569333	1313.660034179688	234.2760009765625	147.1369934082029	1426.537963867188	46.23600006103521	211.4900054931639	1395.444946289062	358.5260009765626	223.6629943847654	1115.720947265625	750.5170288085938	85.92099761962859	1053.942016601562	770.1920166015625	77.20500183105439	929.2529907226562	186.707000732422	364.980010986328	1290.14404296875	824.3129882812501	380.753997802734	1165.60302734375	1128.817016601562	355.597991943359	1206.4150390625	1342.291015625	340.3559875488277	1231.732055664062	965.2169799804689	489.8949890136715	1360.781982421875	1385.204956054688	330.2149963378902	1364.453979492188	749.7529907226564	512.6049804687498	892.4559936523438	197.1390075683594	304.4030151367186	1212.912963867188	424.7160034179689	403.6189880371091	959.81201171875	156.0950012207032	302.7049865722655	930.8670043945312	88.51200103759774	392.1090087890624	979.5659790039062	134.2290039062501	357.4440002441405	1161.208984375	853.8590087890626	297.8829956054684	1248.529052734375	1228.06396484375	379.5299987792964	1225.869018554688	509.7200012207032	448.1929931640622	1076.494018554688	317.0109863281251	442.1220092773436	962.7169799804688	74.63099670410165	371.3590087890624	1212.208984375	323.2569885253907	364.3519897460935	1354.842041015625	788.2399902343751	472.8099975585934	1307.406005859375	762.5130004882814	514.4589843749998	1349.89697265625	1049.142944335938	259.4580078124996	1169.881958007812	965.4899902343751	260.3810119628902	
